<svg width="7" height="3" viewBox="0 0 7 3" fill="none" xmlns="http://www.w3.org/2000/svg">
<path d="M1.03886 1.12057C1.13486 1.12057 1.21257 1.152 1.272 1.21486C1.33143 1.27657 1.36114 1.36057 1.36114 1.46686V2H1.212V1.472C1.212 1.40571 1.19486 1.35429 1.16057 1.31771C1.12629 1.28114 1.08057 1.26286 1.02343 1.26286C0.959429 1.26286 0.908 1.28457 0.869143 1.328C0.831429 1.37029 0.812571 1.43543 0.812571 1.52343V2H0.663429V1.472C0.663429 1.40571 0.646857 1.35429 0.613714 1.31771C0.581714 1.28114 0.537714 1.26286 0.481714 1.26286C0.418857 1.26286 0.366286 1.28457 0.324 1.328C0.282857 1.37143 0.262286 1.43657 0.262286 1.52343V2H0.113143V1.14286H0.262286V1.25771C0.320571 1.16629 0.405714 1.12057 0.517714 1.12057C0.633143 1.12057 0.717143 1.16914 0.769714 1.26629C0.829143 1.16914 0.918857 1.12057 1.03886 1.12057ZM2.27766 1.14286H2.4268V2H2.27766V1.85257C2.20337 1.96571 2.09537 2.02229 1.95366 2.02229C1.83366 2.02229 1.73137 1.97886 1.6468 1.892C1.56223 1.804 1.51994 1.69714 1.51994 1.57143C1.51994 1.44571 1.56223 1.33943 1.6468 1.25257C1.73137 1.16457 1.83366 1.12057 1.95366 1.12057C2.09537 1.12057 2.20337 1.17714 2.27766 1.29029V1.14286ZM1.97251 1.87829C2.05937 1.87829 2.13194 1.84914 2.19023 1.79086C2.24851 1.73143 2.27766 1.65829 2.27766 1.57143C2.27766 1.48457 2.24851 1.412 2.19023 1.35371C2.13194 1.29429 2.05937 1.26457 1.97251 1.26457C1.8868 1.26457 1.8148 1.29429 1.75651 1.35371C1.69823 1.412 1.66908 1.48457 1.66908 1.57143C1.66908 1.65829 1.69823 1.73143 1.75651 1.79086C1.8148 1.84914 1.8868 1.87829 1.97251 1.87829ZM3.07962 1.12057C3.18019 1.12057 3.26076 1.15257 3.32133 1.21657C3.38191 1.27943 3.41219 1.36514 3.41219 1.47371V2H3.26305V1.48229C3.26305 1.41257 3.24419 1.35886 3.20648 1.32114C3.16876 1.28229 3.11676 1.26286 3.05048 1.26286C2.97619 1.26286 2.91619 1.28629 2.87048 1.33314C2.82476 1.37886 2.80191 1.44971 2.80191 1.54571V2H2.65276V1.14286H2.80191V1.26629C2.86248 1.16914 2.95505 1.12057 3.07962 1.12057ZM3.69583 0.986857C3.66725 0.986857 3.64325 0.977143 3.62383 0.957714C3.6044 0.938286 3.59468 0.914857 3.59468 0.887428C3.59468 0.86 3.6044 0.836571 3.62383 0.817143C3.64325 0.796571 3.66725 0.786286 3.69583 0.786286C3.72325 0.786286 3.74668 0.796571 3.76611 0.817143C3.78554 0.836571 3.79525 0.86 3.79525 0.887428C3.79525 0.914857 3.78554 0.938286 3.76611 0.957714C3.74668 0.977143 3.72325 0.986857 3.69583 0.986857ZM3.6204 2V1.14286H3.76954V2H3.6204ZM4.12397 1.37429C4.12397 1.40743 4.14054 1.43429 4.17368 1.45486C4.20683 1.47429 4.24683 1.49029 4.29368 1.50286C4.34054 1.51429 4.3874 1.528 4.43425 1.544C4.48111 1.55886 4.52111 1.58514 4.55425 1.62286C4.5874 1.65943 4.60397 1.70686 4.60397 1.76514C4.60397 1.84286 4.57368 1.90514 4.51311 1.952C4.45368 1.99886 4.37711 2.02229 4.2834 2.02229C4.19997 2.02229 4.12854 2.004 4.06911 1.96743C4.00968 1.93086 3.9674 1.88229 3.94225 1.82171L4.07083 1.748C4.08454 1.78914 4.11025 1.82171 4.14797 1.84571C4.18568 1.86971 4.23083 1.88171 4.2834 1.88171C4.33254 1.88171 4.37311 1.87257 4.40511 1.85429C4.43711 1.83486 4.45311 1.80514 4.45311 1.76514C4.45311 1.732 4.43654 1.70571 4.4034 1.68629C4.37025 1.66571 4.33025 1.64971 4.2834 1.63829C4.23654 1.62571 4.18968 1.61143 4.14283 1.59543C4.09597 1.57943 4.05597 1.55314 4.02283 1.51657C3.98968 1.48 3.97311 1.43314 3.97311 1.376C3.97311 1.30171 4.00168 1.24057 4.05883 1.19257C4.11711 1.14457 4.18968 1.12057 4.27654 1.12057C4.34625 1.12057 4.40797 1.13657 4.46168 1.16857C4.51654 1.19943 4.55768 1.24286 4.58511 1.29886L4.45997 1.36914C4.42911 1.296 4.36797 1.25943 4.27654 1.25943C4.23425 1.25943 4.19825 1.26971 4.16854 1.29029C4.13883 1.30971 4.12397 1.33771 4.12397 1.37429ZM5.19904 1.12057C5.29961 1.12057 5.38018 1.15257 5.44075 1.21657C5.50133 1.27943 5.53161 1.36514 5.53161 1.47371V2H5.38247V1.48229C5.38247 1.41257 5.36361 1.35886 5.3259 1.32114C5.28818 1.28229 5.23618 1.26286 5.1699 1.26286C5.09561 1.26286 5.03561 1.28629 4.9899 1.33314C4.94418 1.37886 4.92133 1.44971 4.92133 1.54571V2H4.77218V0.8H4.92133V1.26629C4.9819 1.16914 5.07447 1.12057 5.19904 1.12057Z" fill="black"/>
<path d="M1.18168 1.12057C1.27768 1.12057 1.35539 1.152 1.41482 1.21486C1.47425 1.27657 1.50397 1.36057 1.50397 1.46686V2H1.35482V1.472C1.35482 1.40571 1.33768 1.35429 1.30339 1.31771C1.26911 1.28114 1.22339 1.26286 1.16625 1.26286C1.10225 1.26286 1.05082 1.28457 1.01197 1.328C0.974251 1.37029 0.955394 1.43543 0.955394 1.52343V2H0.806251V1.472C0.806251 1.40571 0.789679 1.35429 0.756537 1.31771C0.724537 1.28114 0.680537 1.26286 0.624537 1.26286C0.561679 1.26286 0.509108 1.28457 0.466822 1.328C0.425679 1.37143 0.405108 1.43657 0.405108 1.52343V2H0.255965V1.14286H0.405108V1.25771C0.463394 1.16629 0.548537 1.12057 0.660537 1.12057C0.775965 1.12057 0.859965 1.16914 0.912537 1.26629C0.971965 1.16914 1.06168 1.12057 1.18168 1.12057ZM2.42048 1.14286H2.56962V2H2.42048V1.85257C2.34619 1.96571 2.23819 2.02229 2.09648 2.02229C1.97648 2.02229 1.87419 1.97886 1.78962 1.892C1.70505 1.804 1.66276 1.69714 1.66276 1.57143C1.66276 1.44571 1.70505 1.33943 1.78962 1.25257C1.87419 1.16457 1.97648 1.12057 2.09648 1.12057C2.23819 1.12057 2.34619 1.17714 2.42048 1.29029V1.14286ZM2.11534 1.87829C2.20219 1.87829 2.27476 1.84914 2.33305 1.79086C2.39134 1.73143 2.42048 1.65829 2.42048 1.57143C2.42048 1.48457 2.39134 1.412 2.33305 1.35371C2.27476 1.29429 2.20219 1.26457 2.11534 1.26457C2.02962 1.26457 1.95762 1.29429 1.89934 1.35371C1.84105 1.412 1.81191 1.48457 1.81191 1.57143C1.81191 1.65829 1.84105 1.73143 1.89934 1.79086C1.95762 1.84914 2.02962 1.87829 2.11534 1.87829ZM3.22244 1.12057C3.32301 1.12057 3.40359 1.15257 3.46416 1.21657C3.52473 1.27943 3.55501 1.36514 3.55501 1.47371V2H3.40587V1.48229C3.40587 1.41257 3.38701 1.35886 3.3493 1.32114C3.31159 1.28229 3.25959 1.26286 3.1933 1.26286C3.11901 1.26286 3.05901 1.28629 3.0133 1.33314C2.96759 1.37886 2.94473 1.44971 2.94473 1.54571V2H2.79559V1.14286H2.94473V1.26629C3.0053 1.16914 3.09787 1.12057 3.22244 1.12057ZM3.83865 0.986857C3.81008 0.986857 3.78608 0.977143 3.76665 0.957714C3.74722 0.938286 3.73751 0.914857 3.73751 0.887428C3.73751 0.86 3.74722 0.836571 3.76665 0.817143C3.78608 0.796571 3.81008 0.786286 3.83865 0.786286C3.86608 0.786286 3.88951 0.796571 3.90893 0.817143C3.92836 0.836571 3.93808 0.86 3.93808 0.887428C3.93808 0.914857 3.92836 0.938286 3.90893 0.957714C3.88951 0.977143 3.86608 0.986857 3.83865 0.986857ZM3.76322 2V1.14286H3.91236V2H3.76322ZM4.26679 1.37429C4.26679 1.40743 4.28336 1.43429 4.31651 1.45486C4.34965 1.47429 4.38965 1.49029 4.43651 1.50286C4.48336 1.51429 4.53022 1.528 4.57708 1.544C4.62393 1.55886 4.66393 1.58514 4.69708 1.62286C4.73022 1.65943 4.74679 1.70686 4.74679 1.76514C4.74679 1.84286 4.71651 1.90514 4.65593 1.952C4.59651 1.99886 4.51993 2.02229 4.42622 2.02229C4.34279 2.02229 4.27136 2.004 4.21193 1.96743C4.15251 1.93086 4.11022 1.88229 4.08508 1.82171L4.21365 1.748C4.22736 1.78914 4.25308 1.82171 4.29079 1.84571C4.32851 1.86971 4.37365 1.88171 4.42622 1.88171C4.47536 1.88171 4.51593 1.87257 4.54793 1.85429C4.57993 1.83486 4.59593 1.80514 4.59593 1.76514C4.59593 1.732 4.57936 1.70571 4.54622 1.68629C4.51308 1.66571 4.47308 1.64971 4.42622 1.63829C4.37936 1.62571 4.33251 1.61143 4.28565 1.59543C4.23879 1.57943 4.19879 1.55314 4.16565 1.51657C4.13251 1.48 4.11593 1.43314 4.11593 1.376C4.11593 1.30171 4.14451 1.24057 4.20165 1.19257C4.25993 1.14457 4.33251 1.12057 4.41936 1.12057C4.48908 1.12057 4.55079 1.13657 4.60451 1.16857C4.65936 1.19943 4.70051 1.24286 4.72793 1.29886L4.60279 1.36914C4.57193 1.296 4.51079 1.25943 4.41936 1.25943C4.37708 1.25943 4.34108 1.26971 4.31136 1.29029C4.28165 1.30971 4.26679 1.33771 4.26679 1.37429ZM5.34186 1.12057C5.44243 1.12057 5.52301 1.15257 5.58358 1.21657C5.64415 1.27943 5.67443 1.36514 5.67443 1.47371V2H5.52529V1.48229C5.52529 1.41257 5.50643 1.35886 5.46872 1.32114C5.43101 1.28229 5.37901 1.26286 5.31272 1.26286C5.23843 1.26286 5.17843 1.28629 5.13272 1.33314C5.08701 1.37886 5.06415 1.44971 5.06415 1.54571V2H4.91501V0.8H5.06415V1.26629C5.12472 1.16914 5.21729 1.12057 5.34186 1.12057Z" fill="white"/>
</svg>
