<svg width="73" height="60" viewBox="0 0 73 60" fill="none" xmlns="http://www.w3.org/2000/svg">
<path d="M6.87167 42V32.8498C6.87167 29.7033 7.812 28.4013 11.1032 28.4013C14.2135 28.4013 15.2623 29.5225 15.2623 32.5243V42H20.6873V32.8498C20.6873 29.7033 21.6277 28.4013 24.9188 28.4013C28.0292 28.4013 29.078 29.5225 29.078 32.5243V42H34.503V30.716C34.503 26.593 32.2245 23.5188 27.559 23.5188C22.8935 23.5188 21.049 26.376 20.615 29.4502H20.2895C19.8917 26.0867 17.7578 23.5188 13.5625 23.5188C9.0055 23.5188 7.19717 26.3398 6.76317 29.3778H6.47383V23.8805H1.44667V42H6.87167ZM44.8551 48.1483V37.1175H45.1083C45.7231 40.3002 48.0378 42.3617 52.2331 42.3617C57.6943 42.3617 60.7323 38.7088 60.7323 32.9583C60.7323 27.2078 57.622 23.5188 52.0523 23.5188C47.7846 23.5188 45.47 25.3633 44.819 28.8353H44.4573V23.8805H39.4301V48.1483H44.8551ZM44.8551 33.2115V32.9222C44.8551 29.7033 46.6635 28.5098 50.1716 28.5098C53.6075 28.5098 55.235 29.631 55.235 32.9583C55.235 36.2495 53.6075 37.4068 50.1355 37.4068C46.7358 37.4068 44.8551 36.3218 44.8551 33.2115ZM71.7764 42V35.6708H64.7963V42H71.7764Z" fill="black"/>
</svg>
